<svg width="178" height="32" viewBox="0 0 178 32" fill="none" xmlns="http://www.w3.org/2000/svg">
<path d="M18.6406 28.2935L19.936 30.3455C16.8741 32.0011 13.2998 32.4332 9.93271 31.5548C6.56559 30.6764 3.65564 28.5526 1.78865 25.6111C0.0506769 22.8706 -0.189125 17.8192 0.108777 12.9275H7.23866C7.74019 12.9262 8.23386 13.0523 8.67355 13.294C9.11324 13.5357 9.4846 13.8851 9.75291 14.3096L17.0114 25.7412H12.2771C11.8299 25.7415 11.3901 25.628 10.9987 25.4114C10.6074 25.1948 10.2774 24.8822 10.0397 24.5028L9.42163 23.5294C9.84873 22.9813 10.0687 22.2996 10.0428 21.6047C10.0168 20.9099 9.74662 20.2466 9.27985 19.732C8.81308 19.2173 8.17979 18.8846 7.49185 18.7924C6.80391 18.7002 6.10559 18.8546 5.52023 19.2282C4.93487 19.6018 4.50015 20.1707 4.29284 20.8343C4.08553 21.4979 4.11899 22.2135 4.38729 22.8548C4.65559 23.4961 5.14148 24.0217 5.75913 24.3389C6.37678 24.6561 7.08645 24.7444 7.76277 24.5882L8.38083 25.5591C8.79602 26.2181 9.37142 26.7607 10.0531 27.1361C10.7348 27.5115 11.5004 27.7073 12.2783 27.7053H17.5713C17.7847 27.7046 17.9947 27.7582 18.1818 27.861C18.3688 27.9639 18.5266 28.1127 18.6406 28.2935ZM11.418 13.2483L13.4328 16.4211L14.9483 13.2483C14.4679 12.7635 14.17 12.1268 14.1053 11.4467C14.0407 10.7667 14.2132 10.0852 14.5936 9.51818C14.974 8.95121 15.5388 8.5338 16.1918 8.33701C16.8448 8.14022 17.5457 8.17617 18.1752 8.43879C18.8047 8.70141 19.3239 9.17448 19.6445 9.77744C19.9651 10.3804 20.0672 11.076 19.9335 11.7459C19.7998 12.4158 19.4385 13.0186 18.9112 13.4517C18.3838 13.8848 17.7229 14.1214 17.041 14.1213C16.9341 14.1212 16.8272 14.1154 16.7209 14.104L14.9792 17.7486C14.8869 17.9418 14.8452 18.1554 14.8579 18.3692C14.8707 18.583 14.9375 18.7901 15.0521 18.9709L18.266 24.0235L24.7581 10.4334C20.1845 4.22041 1.89001 0.0556946 1.89001 0.0556946C1.14598 3.65503 0.604126 7.29339 0.266998 10.9536H7.24979C8.08041 10.9533 8.89762 11.1635 9.62532 11.5647C10.353 11.966 10.9676 12.5451 11.4118 13.2483H11.418ZM31.5604 30.7294C31.2924 30.3088 30.8947 29.9874 30.4278 29.8139C29.9608 29.6405 29.4501 29.6245 28.9732 29.7684C28.1141 30.0272 27.2064 30.0807 26.323 29.9244C25.0471 29.7063 23.9042 29.0042 23.1313 27.9641C25.1099 25.9806 26.4382 23.4401 26.9393 20.6812C27.4404 17.9223 27.0904 15.076 25.9361 12.5213L19.8025 25.3535C19.7102 25.5468 19.6685 25.7603 19.6812 25.9741C19.694 26.1879 19.7608 26.395 19.8754 26.5758C19.8754 26.5758 21.6208 29.2644 21.6344 29.2557C22.7029 30.6386 24.2502 31.5696 25.9707 31.865C26.4133 31.9456 26.862 31.9871 27.3119 31.9888C28.8166 31.9839 30.2887 31.5492 31.5554 30.7356L31.5604 30.7294ZM5.785 21.7102C5.785 21.9701 5.86192 22.2241 6.00603 22.4402C6.15014 22.6563 6.35497 22.8247 6.59462 22.9241C6.83426 23.0236 7.09797 23.0496 7.35237 22.9989C7.60678 22.9482 7.84047 22.8231 8.02389 22.6393C8.20731 22.4556 8.33222 22.2214 8.38282 21.9665C8.43343 21.7116 8.40746 21.4475 8.30819 21.2074C8.20893 20.9673 8.04083 20.7621 7.82515 20.6177C7.60947 20.4733 7.35591 20.3963 7.09651 20.3963C6.74868 20.3963 6.41509 20.5347 6.16913 20.7811C5.92318 21.0275 5.785 21.3617 5.785 21.7102ZM18.3414 11.1665C18.3414 10.9067 18.2645 10.6527 18.1204 10.4366C17.9763 10.2205 17.7714 10.0521 17.5318 9.95265C17.2921 9.8532 17.0284 9.82716 16.774 9.87786C16.5196 9.92856 16.2859 10.0537 16.1025 10.2375C15.9191 10.4212 15.7942 10.6553 15.7436 10.9102C15.693 11.1651 15.719 11.4293 15.8182 11.6694C15.9175 11.9095 16.0856 12.1147 16.3013 12.2591C16.5169 12.4034 16.7705 12.4805 17.0299 12.4805C17.2024 12.4811 17.3734 12.4477 17.533 12.382C17.6926 12.3163 17.8377 12.2198 17.96 12.0978C18.0823 11.9759 18.1794 11.831 18.2457 11.6714C18.312 11.5118 18.3462 11.3407 18.3464 11.1678L18.3414 11.1665Z" fill="url(#paint0_linear_16_419)"/>
<path d="M42.8498 0.118866V18.5535C42.8498 21.1913 43.5531 22.021 46.3356 21.5876L46.4704 24.3579C41.5098 25.1492 39.2292 23.8959 39.2292 18.5857V0.118866H42.8498Z" fill="#221F1C"/>
<path d="M63.436 16.9721H51.4803C51.4803 19.8737 53.798 21.5888 56.7523 21.5888C58.7614 21.7203 60.7733 21.3811 62.6288 20.5981L63.0985 23.2681C61.1727 24.1252 59.0943 24.5852 56.9872 24.6204C51.6472 24.7195 47.7164 21.3548 47.8857 15.9802C47.9871 10.67 51.882 7.99875 56.2814 7.99875C61.9576 8.00123 64.5089 11.6953 63.436 16.9721ZM51.5483 14.4322H60.4804C60.5818 12.0248 58.5669 10.7715 56.2505 10.7715C55.1485 10.6661 54.0478 10.9863 53.1736 11.6667C52.2994 12.3471 51.7188 13.3364 51.5483 14.4322Z" fill="#221F1C"/>
<path d="M81.8726 19.5108C81.8726 20.9622 81.838 21.886 83.618 21.7201V24.161C81.3003 24.5894 78.9207 24.3257 78.9207 21.6842V21.0947C78.4333 22.1512 77.6425 23.0381 76.6496 23.6423C75.6566 24.2465 74.5064 24.5404 73.3459 24.4867C68.4101 24.4867 66.0256 20.5956 66.0256 16.1102C66.1258 10.8334 69.954 7.93682 75.226 8.03094C77.5212 8.05969 79.7853 8.56575 81.8751 9.51702L81.8726 19.5108ZM78.3472 11.5963C77.2734 11.1467 76.119 10.9225 74.9553 10.9374C74.2563 10.875 73.5521 10.9653 72.8912 11.202C72.2304 11.4386 71.6286 11.8161 71.1275 12.3083C70.6263 12.8005 70.2377 13.3957 69.9883 14.0529C69.739 14.7101 69.6349 15.4137 69.6833 16.1151C69.6833 19.0179 71.1271 21.2928 74.116 21.2928C76.8354 21.2928 78.2458 19.2149 78.3472 16.2799V11.5963Z" fill="#221F1C"/>
<path d="M114.544 20.4669V14.7938C114.643 10.8309 112.566 7.99999 108.257 7.99999C107.186 7.94219 106.121 8.19099 105.186 8.7173C104.251 9.2436 103.485 10.0257 102.977 10.9721C102.977 8.56717 100.784 8.43468 98.7418 8.43468H91.6317V6.35046C91.6317 2.38761 94.759 2.06315 97.5576 3.21733L97.9531 0.710845C92.9815 -0.937452 88.1767 0.0185852 88.1767 6.2836V8.42724H85.1816V11.1319H88.1112V24.2588H91.6329V11.1319H98.052C99.612 11.1319 99.6009 11.5628 99.6009 13.673V24.2576H103.186V15.0229C103.152 14.4812 103.233 13.9386 103.421 13.4299C103.61 12.9212 103.903 12.4578 104.281 12.0694C104.66 11.6811 105.115 11.3764 105.618 11.175C106.121 10.9737 106.66 10.8801 107.202 10.9003C107.722 10.8877 108.239 10.985 108.72 11.1859C109.2 11.3868 109.633 11.6868 109.99 12.0663C110.347 12.4459 110.62 12.8964 110.792 13.3888C110.964 13.8811 111.03 14.4041 110.987 14.9238V20.5969C110.987 24.3901 113.358 24.7851 116.386 24.1882V21.9121C114.841 22.083 114.544 21.6545 114.544 20.4669Z" fill="#221F1C"/>
<path d="M126.149 24.5573C121.885 24.5238 117.656 21.7536 117.656 16.2464C117.656 10.6737 122.019 7.93562 126.316 7.96905C130.746 8.00125 134.741 10.7715 134.741 16.2464C134.742 21.8192 130.446 24.5895 126.149 24.5573ZM126.182 21.3907C126.849 21.4033 127.512 21.277 128.128 21.0198C128.744 20.7626 129.299 20.3801 129.76 19.8966C130.221 19.413 130.576 18.8389 130.804 18.2106C131.032 17.5823 131.127 16.9135 131.083 16.2464C131.135 15.5903 131.051 14.9305 130.834 14.3091C130.617 13.6878 130.274 13.1184 129.825 12.6374C129.377 12.1564 128.833 11.7744 128.229 11.5156C127.625 11.2568 126.974 11.127 126.317 11.1344C124.984 11.1544 123.711 11.6945 122.769 12.6398C121.827 13.5852 121.291 14.8613 121.273 16.1969C121.255 17.5325 121.758 18.8224 122.675 19.7922C123.592 20.7621 124.85 21.3355 126.182 21.3907Z" fill="#221F1C"/>
<path d="M140.029 1.3399C140.315 1.32581 140.601 1.36979 140.87 1.46919C141.138 1.56859 141.384 1.72138 141.592 1.91836C141.801 2.11533 141.967 2.35245 142.081 2.61544C142.196 2.87844 142.256 3.16188 142.258 3.44877C142.261 3.73566 142.205 4.02007 142.095 4.28489C141.985 4.54972 141.822 4.78953 141.617 4.98988C141.412 5.19023 141.169 5.34698 140.902 5.45076C140.635 5.55454 140.35 5.60318 140.064 5.59377C139.77 5.616 139.474 5.57701 139.196 5.47922C138.918 5.38143 138.663 5.22698 138.447 5.02559C138.232 4.8242 138.06 4.58023 137.943 4.30908C137.826 4.03793 137.767 3.74548 137.768 3.45013C137.767 3.15928 137.825 2.87127 137.941 2.60426C138.056 2.33724 138.225 2.09701 138.437 1.89874C138.65 1.70047 138.901 1.54848 139.175 1.4523C139.449 1.35611 139.74 1.31783 140.029 1.3399ZM141.883 24.26H138.148V8.53249H141.882L141.883 24.26Z" fill="#221F1C"/>
<path d="M148.872 19.5777C148.972 21.226 150.806 21.9851 152.54 21.9851C154.306 21.9851 156.273 21.4898 156.372 19.5442C156.372 18.0929 154.872 17.6644 152.772 17.4006C149.472 16.9721 145.772 16.6093 145.672 13.0155C145.672 9.61855 149.009 8.03589 152.505 8.03589C156.205 8.03589 159.439 9.65199 159.338 12.8186H156.139C156.139 11.2346 154.206 10.7405 152.506 10.7405C150.84 10.7405 149.106 11.5318 149.206 12.9498C149.239 14.2687 150.54 14.5659 153.038 14.8631C156.405 15.2916 159.671 15.8538 159.671 19.6123C159.671 23.1405 156.237 24.6576 152.671 24.6576C149.105 24.6576 145.571 23.5368 145.305 19.5801L148.872 19.5777Z" fill="#221F1C"/>
<path d="M177.76 16.9721H165.805C165.805 19.8737 168.122 21.5888 171.077 21.5888C173.086 21.7203 175.098 21.3811 176.953 20.5981L177.424 23.2681C175.498 24.1254 173.419 24.5853 171.311 24.6204C165.971 24.7195 162.041 21.3548 162.211 15.9802C162.311 10.67 166.207 7.99875 170.607 7.99875C176.282 8.00123 178.834 11.6953 177.76 16.9721ZM165.873 14.4322H174.806C174.907 12.0248 172.892 10.7715 170.575 10.7715C169.473 10.6664 168.372 10.9867 167.498 11.6671C166.624 12.3475 166.043 13.3365 165.873 14.4322Z" fill="#221F1C"/>
<defs>
<linearGradient id="paint0_linear_16_419" x1="0.000244141" y1="16.0277" x2="31.5604" y2="16.0277" gradientUnits="userSpaceOnUse">
<stop stop-color="#74AF0D"/>
<stop offset="1" stop-color="#F3E100"/>
</linearGradient>
</defs>
</svg>
